# xmcd
#
# Track frame offsets: 
#        150
#        34400
#        60650
#        69375
#        87237
#        120325
#        137175
#        153025
#        181037
#        193625
#        210450
#        236000
#
# Disc length: 3459 seconds
#
# Revision: 4
# Processed by: cddbd v1.5.2PL0 Copyright (c) Steve Scherf et al.
# Submitted via: ExactAudioCopy v0.99pb5
#
DISCID=9b0d810c
DTITLE=Chris Barber - Concert 1980
DYEAR=1980
DGENRE=Jazz
TTITLE0=Royal Garden Blues
TTITLE1=Wabash Blues
TTITLE2=Ha-Ha-This-A-Way
TTITLE3=Sweet Sue
TTITLE4=Ain't Misbehavin'/Crocker's
TTITLE5=We Shall Walk Throught The Streets Of The City
TTITLE6=Down By The Riverside
TTITLE7=Oh Baby/Patocake Blues
TTITLE8=Alligator Hop
TTITLE9=Tiger Rag
TTITLE10=Come Friday
TTITLE11=Ice Cream
EXTD=
EXTT0=
EXTT1=
EXTT2=
EXTT3=
EXTT4=
EXTT5=
EXTT6=
EXTT7=
EXTT8=
EXTT9=
EXTT10=
EXTT11=
PLAYORDER=
